# xmcd
#
# Track frame offsets: 
#        150
#        25584
#        47152
#        65680
#        85384
#        98065
#        117546
#        133668
#        158900
#        179819
#        202093
#        221427
#        239078
#
# Disc length: 3419 seconds
#
# Revision: 0
# Processed by: cddbd v1.5.2PL0 Copyright (c) Steve Scherf et al.
# Submitted via: ExactAudioCopy v0.99pb3
#
DISCID=c60d590d
DTITLE=Zora Young - Sunnyland
DYEAR=2009
DGENRE=Blues
TTITLE0=Bad Track Record
TTITLE1=Goin' Back To Memphis
TTITLE2=Travelin' Light
TTITLE3=Hubert's Groove
TTITLE4=Football Widow
TTITLE5=You Said You Were Leaving
TTITLE6=Sunnyland
TTITLE7=Johnson Machine Gun
TTITLE8=Stumbling Blocks And Stepping Stones
TTITLE9=Til The Fat Lady Sings
TTITLE10=Blues For Hubert
TTITLE11=Daughter Of A Son-Of-A-Gun
TTITLE12=Looka Here Baby
EXTD=
EXTT0=
EXTT1=
EXTT2=
EXTT3=
EXTT4=
EXTT5=
EXTT6=
EXTT7=
EXTT8=
EXTT9=
EXTT10=
EXTT11=
EXTT12=
PLAYORDER=
